<svg width="1786" height="551" viewBox="0 0 1786 551" fill="none" xmlns="http://www.w3.org/2000/svg">
<g clip-path="url(#clip0_74_220)">
<path d="M1257.85 548.95L1420.12 113.68L1786 548.95H1257.85Z" fill="url(#paint0_linear_74_220)" fill-opacity="0.37"/>
<path d="M1257.85 548.95L1420.12 113.68L1786 548.95H1257.85Z" fill="url(#paint1_linear_74_220)" fill-opacity="0.37"/>
<path d="M1786 1.02002V551H0L1786 1.02002Z" fill="url(#paint2_linear_74_220)" fill-opacity="0.54"/>
<path d="M893 276.01V551H1786L893 276.01Z" fill="#00ACB0"/>
<path d="M0 1.02002V551L1786 549.98L0 1.02002Z" fill="url(#paint3_linear_74_220)"/>
<path d="M1456.29 156.7L1786 1.02002V350.78L1456.29 156.7Z" fill="url(#paint4_linear_74_220)" fill-opacity="0.37"/>
<path d="M1456.29 156.7L1786 1.02002V350.78L1456.29 156.7Z" fill="url(#paint5_linear_74_220)" fill-opacity="0.37"/>
<path d="M564.33 174.11L1279.55 394.31L807.73 549.98L564.32 174.11H564.33Z" fill="url(#paint6_linear_74_220)"/>
<path d="M564.33 174.11L1279.55 394.31L807.73 549.98L564.32 174.11H564.33Z" fill="url(#paint7_linear_74_220)"/>
<path d="M564.33 174.11L0 549.98V0L564.33 174.11Z" fill="url(#paint8_linear_74_220)"/>
<path d="M564.33 174.11L0 549.98V0L564.33 174.11Z" fill="url(#paint9_linear_74_220)"/>
</g>
<defs>
<linearGradient id="paint0_linear_74_220" x1="1282.78" y1="269.51" x2="1450.27" y2="453.69" gradientUnits="userSpaceOnUse">
<stop stop-color="#EC1735"/>
<stop offset="1" stop-color="#F0576D" stop-opacity="0"/>
</linearGradient>
<linearGradient id="paint1_linear_74_220" x1="1282.78" y1="269.51" x2="1450.27" y2="453.69" gradientUnits="userSpaceOnUse">
<stop stop-color="#EC1735"/>
<stop offset="1" stop-color="#F0576D" stop-opacity="0"/>
</linearGradient>
<linearGradient id="paint2_linear_74_220" x1="1731.58" y1="221.85" x2="102.36" y2="861.33" gradientUnits="userSpaceOnUse">
<stop offset="0.21" stop-color="#B4001A"/>
<stop offset="1" stop-color="#E53750" stop-opacity="0"/>
</linearGradient>
<linearGradient id="paint3_linear_74_220" x1="800.05" y1="761.44" x2="885.09" y2="316.86" gradientUnits="userSpaceOnUse">
<stop offset="0.13"/>
<stop offset="1" stop-color="#00ACB0"/>
</linearGradient>
<linearGradient id="paint4_linear_74_220" x1="1828.43" y1="205.92" x2="1621.24" y2="78.92" gradientUnits="userSpaceOnUse">
<stop stop-color="#EC1735"/>
<stop offset="1" stop-color="#F0576D" stop-opacity="0"/>
</linearGradient>
<linearGradient id="paint5_linear_74_220" x1="1828.43" y1="205.92" x2="1621.24" y2="78.92" gradientUnits="userSpaceOnUse">
<stop stop-color="#EC1735"/>
<stop offset="1" stop-color="#F0576D" stop-opacity="0"/>
</linearGradient>
<linearGradient id="paint6_linear_74_220" x1="727.84" y1="368" x2="1230.51" y2="439.6" gradientUnits="userSpaceOnUse">
<stop stop-color="#00ACB0"/>
<stop offset="1" stop-color="white" stop-opacity="0"/>
</linearGradient>
<linearGradient id="paint7_linear_74_220" x1="727.84" y1="368" x2="1230.51" y2="439.6" gradientUnits="userSpaceOnUse">
<stop stop-color="#00ACB0"/>
<stop offset="1" stop-color="white" stop-opacity="0"/>
</linearGradient>
<linearGradient id="paint8_linear_74_220" x1="588.21" y1="80.9" x2="-114.31" y2="312.71" gradientUnits="userSpaceOnUse">
<stop/>
<stop offset="1" stop-color="#005C5F" stop-opacity="0"/>
</linearGradient>
<linearGradient id="paint9_linear_74_220" x1="588.21" y1="80.9" x2="-114.31" y2="312.71" gradientUnits="userSpaceOnUse">
<stop/>
<stop offset="1" stop-color="#005C5F" stop-opacity="0"/>
</linearGradient>
<clipPath id="clip0_74_220">
<rect width="1786" height="551" fill="white"/>
</clipPath>
</defs>
</svg>
