<?xml version="1.0" encoding="UTF-8"?><svg xmlns="http://www.w3.org/2000/svg" xmlns:xlink="http://www.w3.org/1999/xlink" viewBox="0 0 1786 551"><defs><style>.k{fill:url(#e);fill-opacity:.54;}.l{fill:url(#f);}.m{fill:url(#d);}.m,.n,.o{fill-opacity:.37;}.n{fill:url(#h);}.p{fill:url(#i);}.q{fill:#00acb0;}.o{fill:url(#g);}.r{fill:url(#j);}</style><linearGradient id="d" x1="1282.78" y1="282.49" x2="1450.27" y2="98.31" gradientTransform="translate(0 552) scale(1 -1)" gradientUnits="userSpaceOnUse"><stop offset="0" stop-color="#ec1735"/><stop offset="1" stop-color="#f0576d" stop-opacity="0"/></linearGradient><linearGradient id="e" x1="1731.58" y1="330.15" x2="102.36" y2="-309.33" gradientTransform="translate(0 552) scale(1 -1)" gradientUnits="userSpaceOnUse"><stop offset=".21" stop-color="#b4001a"/><stop offset="1" stop-color="#e53750" stop-opacity="0"/></linearGradient><linearGradient id="f" x1="800.05" y1="-209.44" x2="885.09" y2="235.14" gradientTransform="translate(0 552) scale(1 -1)" gradientUnits="userSpaceOnUse"><stop offset=".13" stop-color="#000"/><stop offset="1" stop-color="#00acb0"/></linearGradient><linearGradient id="g" x1="1828.43" y1="346.08" x2="1621.24" y2="473.08" xlink:href="#d"/><linearGradient id="h" x1="1828.43" y1="346.08" x2="1621.24" y2="473.08" xlink:href="#d"/><linearGradient id="i" x1="727.84" y1="184" x2="1230.51" y2="112.4" gradientTransform="translate(0 552) scale(1 -1)" gradientUnits="userSpaceOnUse"><stop offset="0" stop-color="#00acb0"/><stop offset="1" stop-color="#fff" stop-opacity="0"/></linearGradient><linearGradient id="j" x1="588.21" y1="471.1" x2="-114.31" y2="239.29" gradientTransform="translate(0 552) scale(1 -1)" gradientUnits="userSpaceOnUse"><stop offset="0" stop-color="#000"/><stop offset="1" stop-color="#005c5f" stop-opacity="0"/></linearGradient></defs><g id="a"/><g id="b"><g id="c"><path class="m" d="M1257.85,548.95l162.27-435.27,365.88,435.27h-528.15Z"/><path class="m" d="M1257.85,548.95l162.27-435.27,365.88,435.27h-528.15Z"/><path class="k" d="M1786,1.02V551H0L1786,1.02Z"/><path class="q" d="M893,276.01v274.99h893L893,276.01Z"/><path class="l" d="M0,1.02V551l1786-1.02L0,1.02Z"/><path class="o" d="M1456.29,156.7L1786,1.02V350.78l-329.71-194.08Z"/><path class="n" d="M1456.29,156.7L1786,1.02V350.78l-329.71-194.08Z"/><path class="p" d="M564.33,174.11l715.22,220.2-471.82,155.67-243.41-375.87Z"/><path class="p" d="M564.33,174.11l715.22,220.2-471.82,155.67-243.41-375.87Z"/><path class="r" d="M564.33,174.11L0,549.98V0L564.33,174.11Z"/><path class="r" d="M564.33,174.11L0,549.98V0L564.33,174.11Z"/></g></g></svg>