<svg width="500" height="98" viewBox="0 0 500 98" fill="none" xmlns="http://www.w3.org/2000/svg">
<rect y="7" width="467" height="56" fill="#FECC38"/>
<path d="M47.44 78.96C43.12 78.96 39.0933 78.2667 35.36 76.88C31.68 75.44 28.48 73.4133 25.76 70.8C23.04 68.1867 20.9067 65.12 19.36 61.6C17.8667 58.08 17.12 54.2133 17.12 50C17.12 45.7867 17.8667 41.92 19.36 38.4C20.9067 34.88 23.04 31.8133 25.76 29.2C28.5333 26.5867 31.76 24.5867 35.44 23.2C39.12 21.76 43.1467 21.04 47.52 21.04C52.3733 21.04 56.7467 21.8933 60.64 23.6C64.5867 25.2533 67.8933 27.7067 70.56 30.96L62.24 38.64C60.32 36.4533 58.1867 34.8267 55.84 33.76C53.4933 32.64 50.9333 32.08 48.16 32.08C45.5467 32.08 43.1467 32.5067 40.96 33.36C38.7733 34.2133 36.88 35.44 35.28 37.04C33.68 38.64 32.4267 40.5333 31.52 42.72C30.6667 44.9067 30.24 47.3333 30.24 50C30.24 52.6667 30.6667 55.0933 31.52 57.28C32.4267 59.4667 33.68 61.36 35.28 62.96C36.88 64.56 38.7733 65.7867 40.96 66.64C43.1467 67.4933 45.5467 67.92 48.16 67.92C50.9333 67.92 53.4933 67.3867 55.84 66.32C58.1867 65.2 60.32 63.52 62.24 61.28L70.56 68.96C67.8933 72.2133 64.5867 74.6933 60.64 76.4C56.7467 78.1067 52.3467 78.96 47.44 78.96ZM97.4275 78.64C92.8408 78.64 88.7608 77.68 85.1875 75.76C81.6675 73.84 78.8675 71.2267 76.7875 67.92C74.7608 64.56 73.7475 60.7467 73.7475 56.48C73.7475 52.16 74.7608 48.3467 76.7875 45.04C78.8675 41.68 81.6675 39.0667 85.1875 37.2C88.7608 35.28 92.8408 34.32 97.4275 34.32C101.961 34.32 106.014 35.28 109.588 37.2C113.161 39.0667 115.961 41.6533 117.988 44.96C120.014 48.2667 121.028 52.1067 121.028 56.48C121.028 60.7467 120.014 64.56 117.988 67.92C115.961 71.2267 113.161 73.84 109.588 75.76C106.014 77.68 101.961 78.64 97.4275 78.64ZM97.4275 68.4C99.5075 68.4 101.374 67.92 103.028 66.96C104.681 66 105.988 64.64 106.948 62.88C107.908 61.0667 108.388 58.9333 108.388 56.48C108.388 53.9733 107.908 51.84 106.948 50.08C105.988 48.32 104.681 46.96 103.028 46C101.374 45.04 99.5075 44.56 97.4275 44.56C95.3475 44.56 93.4808 45.04 91.8275 46C90.1742 46.96 88.8408 48.32 87.8275 50.08C86.8675 51.84 86.3875 53.9733 86.3875 56.48C86.3875 58.9333 86.8675 61.0667 87.8275 62.88C88.8408 64.64 90.1742 66 91.8275 66.96C93.4808 67.92 95.3475 68.4 97.4275 68.4ZM155.529 34.32C158.943 34.32 161.983 35.0133 164.649 36.4C167.369 37.7333 169.503 39.8133 171.049 42.64C172.596 45.4133 173.369 48.9867 173.369 53.36V78H160.889V55.28C160.889 51.8133 160.116 49.2533 158.569 47.6C157.076 45.9467 154.943 45.12 152.169 45.12C150.196 45.12 148.409 45.5467 146.809 46.4C145.263 47.2 144.036 48.4533 143.129 50.16C142.276 51.8667 141.849 54.0533 141.849 56.72V78H129.369V34.96H141.289V46.88L139.049 43.28C140.596 40.4 142.809 38.1867 145.689 36.64C148.569 35.0933 151.849 34.32 155.529 34.32ZM210.842 34.32C214.255 34.32 217.295 35.0133 219.962 36.4C222.682 37.7333 224.815 39.8133 226.362 42.64C227.909 45.4133 228.682 48.9867 228.682 53.36V78H216.202V55.28C216.202 51.8133 215.429 49.2533 213.882 47.6C212.389 45.9467 210.255 45.12 207.482 45.12C205.509 45.12 203.722 45.5467 202.122 46.4C200.575 47.2 199.349 48.4533 198.442 50.16C197.589 51.8667 197.162 54.0533 197.162 56.72V78H184.682V34.96H196.602V46.88L194.362 43.28C195.909 40.4 198.122 38.1867 201.002 36.64C203.882 35.0933 207.162 34.32 210.842 34.32ZM261.667 78.64C256.76 78.64 252.44 77.68 248.707 75.76C245.027 73.84 242.174 71.2267 240.147 67.92C238.12 64.56 237.107 60.7467 237.107 56.48C237.107 52.16 238.094 48.3467 240.067 45.04C242.094 41.68 244.84 39.0667 248.307 37.2C251.774 35.28 255.694 34.32 260.067 34.32C264.28 34.32 268.067 35.2267 271.427 37.04C274.84 38.8 277.534 41.36 279.507 44.72C281.48 48.0267 282.467 52 282.467 56.64C282.467 57.12 282.44 57.68 282.387 58.32C282.334 58.9067 282.28 59.4667 282.227 60H247.267V52.72H275.667L270.867 54.88C270.867 52.64 270.414 50.6933 269.507 49.04C268.6 47.3867 267.347 46.1067 265.747 45.2C264.147 44.24 262.28 43.76 260.147 43.76C258.014 43.76 256.12 44.24 254.467 45.2C252.867 46.1067 251.614 47.4133 250.707 49.12C249.8 50.7733 249.347 52.7467 249.347 55.04V56.96C249.347 59.3067 249.854 61.3867 250.867 63.2C251.934 64.96 253.4 66.32 255.267 67.28C257.187 68.1867 259.427 68.64 261.987 68.64C264.28 68.64 266.28 68.2933 267.987 67.6C269.747 66.9067 271.347 65.8667 272.787 64.48L279.427 71.68C277.454 73.92 274.974 75.6533 271.987 76.88C269 78.0533 265.56 78.64 261.667 78.64ZM311.576 78.64C306.936 78.64 302.802 77.7067 299.176 75.84C295.549 73.92 292.696 71.28 290.616 67.92C288.589 64.56 287.576 60.7467 287.576 56.48C287.576 52.16 288.589 48.3467 290.616 45.04C292.696 41.68 295.549 39.0667 299.176 37.2C302.802 35.28 306.936 34.32 311.576 34.32C316.109 34.32 320.056 35.28 323.416 37.2C326.776 39.0667 329.256 41.76 330.856 45.28L321.176 50.48C320.056 48.4533 318.642 46.96 316.936 46C315.282 45.04 313.469 44.56 311.496 44.56C309.362 44.56 307.442 45.04 305.736 46C304.029 46.96 302.669 48.32 301.656 50.08C300.696 51.84 300.216 53.9733 300.216 56.48C300.216 58.9867 300.696 61.12 301.656 62.88C302.669 64.64 304.029 66 305.736 66.96C307.442 67.92 309.362 68.4 311.496 68.4C313.469 68.4 315.282 67.9467 316.936 67.04C318.642 66.08 320.056 64.56 321.176 62.48L330.856 67.76C329.256 71.2267 326.776 73.92 323.416 75.84C320.056 77.7067 316.109 78.64 311.576 78.64ZM356.266 78.64C351.2 78.64 347.253 77.36 344.426 74.8C341.6 72.1867 340.186 68.32 340.186 63.2V25.44H352.666V63.04C352.666 64.8533 353.146 66.2667 354.106 67.28C355.066 68.24 356.373 68.72 358.026 68.72C360 68.72 361.68 68.1867 363.066 67.12L366.426 75.92C365.146 76.8267 363.6 77.52 361.786 78C360.026 78.4267 358.186 78.64 356.266 78.64ZM333.546 45.52V35.92H363.386V45.52H333.546ZM373.432 78V34.96H385.912V78H373.432ZM379.672 28.96C377.379 28.96 375.512 28.2933 374.072 26.96C372.632 25.6267 371.912 23.9733 371.912 22C371.912 20.0267 372.632 18.3733 374.072 17.04C375.512 15.7067 377.379 15.04 379.672 15.04C381.965 15.04 383.832 15.68 385.272 16.96C386.712 18.1867 387.432 19.7867 387.432 21.76C387.432 23.84 386.712 25.5733 385.272 26.96C383.885 28.2933 382.019 28.96 379.672 28.96ZM417.974 78.64C413.388 78.64 409.308 77.68 405.734 75.76C402.214 73.84 399.414 71.2267 397.334 67.92C395.308 64.56 394.294 60.7467 394.294 56.48C394.294 52.16 395.308 48.3467 397.334 45.04C399.414 41.68 402.214 39.0667 405.734 37.2C409.308 35.28 413.388 34.32 417.974 34.32C422.508 34.32 426.561 35.28 430.134 37.2C433.708 39.0667 436.508 41.6533 438.534 44.96C440.561 48.2667 441.574 52.1067 441.574 56.48C441.574 60.7467 440.561 64.56 438.534 67.92C436.508 71.2267 433.708 73.84 430.134 75.76C426.561 77.68 422.508 78.64 417.974 78.64ZM417.974 68.4C420.054 68.4 421.921 67.92 423.574 66.96C425.228 66 426.534 64.64 427.494 62.88C428.454 61.0667 428.934 58.9333 428.934 56.48C428.934 53.9733 428.454 51.84 427.494 50.08C426.534 48.32 425.228 46.96 423.574 46C421.921 45.04 420.054 44.56 417.974 44.56C415.894 44.56 414.028 45.04 412.374 46C410.721 46.96 409.388 48.32 408.374 50.08C407.414 51.84 406.934 53.9733 406.934 56.48C406.934 58.9333 407.414 61.0667 408.374 62.88C409.388 64.64 410.721 66 412.374 66.96C414.028 67.92 415.894 68.4 417.974 68.4ZM476.076 34.32C479.49 34.32 482.53 35.0133 485.196 36.4C487.916 37.7333 490.05 39.8133 491.596 42.64C493.143 45.4133 493.916 48.9867 493.916 53.36V78H481.436V55.28C481.436 51.8133 480.663 49.2533 479.116 47.6C477.623 45.9467 475.49 45.12 472.716 45.12C470.743 45.12 468.956 45.5467 467.356 46.4C465.81 47.2 464.583 48.4533 463.676 50.16C462.823 51.8667 462.396 54.0533 462.396 56.72V78H449.916V34.96H461.836V46.88L459.596 43.28C461.143 40.4 463.356 38.1867 466.236 36.64C469.116 35.0933 472.396 34.32 476.076 34.32Z" fill="black"/>
</svg>
