<?xml version="1.0" standalone="no"?>
<!DOCTYPE svg PUBLIC "-//W3C//DTD SVG 20010904//EN"
 "http://www.w3.org/TR/2001/REC-SVG-20010904/DTD/svg10.dtd">
<svg version="1.0" xmlns="http://www.w3.org/2000/svg"
 width="536.000000pt" height="565.000000pt" viewBox="0 0 536.000000 565.000000"
 preserveAspectRatio="xMidYMid meet">

<g transform="translate(0.000000,565.000000) scale(0.100000,-0.100000)"
fill="#000000" stroke="none">
<path d="M1966 5629 c-30 -24 -34 -63 -10 -97 11 -16 25 -22 54 -22 67 0 93
68 45 115 -30 30 -54 31 -89 4z"/>
<path d="M1374 5050 c-12 -5 -29 -19 -38 -32 -51 -72 33 -165 112 -124 60 31
60 121 1 151 -31 17 -44 18 -75 5z"/>
<path d="M3814 4956 c-90 -40 -108 -157 -33 -220 42 -36 89 -42 136 -20 107
53 108 184 1 240 -33 17 -64 17 -104 0z"/>
<path d="M3524 4766 c-42 -19 -64 -53 -64 -99 0 -75 40 -116 111 -117 53 0 90
23 109 69 38 93 -63 189 -156 147z"/>
<path d="M3022 4754 c-28 -19 -52 -65 -52 -99 0 -94 117 -150 189 -90 61 52
60 133 -4 183 -33 26 -100 29 -133 6z"/>
<path d="M4314 4751 c-99 -45 -97 -188 3 -233 92 -40 183 18 183 117 0 54 -25
94 -73 116 -52 23 -62 23 -113 0z"/>
<path d="M1683 4560 c-113 -69 -64 -240 70 -240 44 0 53 4 88 39 33 33 39 45
39 82 0 108 -108 174 -197 119z"/>
<path d="M2845 4457 c-39 -39 -44 -70 -20 -117 47 -90 185 -54 185 49 0 55
-32 90 -87 98 -39 5 -46 2 -78 -30z"/>
<path d="M2448 4288 c-27 -29 -30 -38 -25 -77 7 -59 41 -91 98 -91 57 0 99 42
99 100 0 93 -108 136 -172 68z"/>
<path d="M3459 4271 c-32 -33 -36 -58 -14 -100 16 -32 33 -41 75 -41 42 0 59
9 76 42 46 89 -65 170 -137 99z"/>
<path d="M879 4262 c-46 -38 -17 -122 41 -122 41 0 73 31 73 70 0 38 -31 70
-68 70 -13 0 -33 -8 -46 -18z"/>
<path d="M3835 4198 c-78 -45 -49 -158 40 -158 25 0 44 8 60 25 68 67 -18 180
-100 133z"/>
<path d="M4441 4076 c-48 -27 -66 -100 -35 -144 40 -57 115 -62 159 -10 43 51
31 124 -25 153 -35 18 -67 19 -99 1z"/>
<path d="M3886 3899 c-36 -28 -36 -80 0 -108 15 -12 34 -21 44 -21 34 0 70 39
70 75 0 36 -36 75 -70 75 -10 0 -29 -9 -44 -21z"/>
<path d="M2700 3873 c-25 -32 -20 -69 12 -95 44 -38 111 -7 111 50 0 70 -80
99 -123 45z"/>
<path d="M1413 3870 c-30 -12 -56 -55 -56 -91 0 -69 65 -120 127 -99 45 15 67
41 73 89 5 36 2 44 -30 76 -36 36 -68 43 -114 25z"/>
<path d="M3182 3798 c-21 -21 -14 -66 12 -83 50 -33 104 20 72 70 -18 27 -63
34 -84 13z"/>
<path d="M2189 3735 c-61 -33 -54 -131 11 -153 44 -16 92 5 110 47 11 28 11
37 -3 67 -15 31 -50 55 -80 54 -7 -1 -24 -7 -38 -15z"/>
<path d="M2946 3734 c-19 -18 -21 -65 -4 -82 17 -17 64 -15 82 4 21 21 20 57
-2 77 -23 21 -56 22 -76 1z"/>
<path d="M4125 3710 c-26 -29 -24 -79 4 -102 66 -53 153 29 101 95 -27 34 -78
37 -105 7z"/>
<path d="M2460 3688 c-27 -29 -25 -64 5 -93 38 -39 86 -32 110 16 37 71 -59
136 -115 77z"/>
<path d="M1557 3597 c-59 -47 -53 -141 12 -184 43 -29 79 -29 122 0 67 45 75
122 19 179 -37 37 -110 40 -153 5z"/>
<path d="M3322 3568 c-27 -27 -6 -68 35 -68 29 0 48 33 33 60 -12 22 -49 27
-68 8z"/>
<path d="M3515 3547 c-13 -10 -16 -21 -11 -41 6 -24 11 -27 39 -24 25 2 33 8
35 27 3 15 -3 30 -14 38 -22 16 -26 16 -49 0z"/>
<path d="M4053 3434 c-15 -24 -15 -29 -2 -53 11 -20 22 -26 49 -26 27 0 38 6
49 26 13 24 13 29 -2 53 -12 18 -26 26 -47 26 -21 0 -35 -8 -47 -26z"/>
<path d="M2007 3419 c-26 -15 -49 -67 -41 -92 9 -30 34 -57 62 -68 29 -11 86
11 101 39 40 75 -50 163 -122 121z"/>
<path d="M824 3240 c-43 -17 -66 -77 -48 -125 8 -19 55 -45 83 -45 11 0 33 12
50 26 23 19 31 34 31 59 0 61 -64 107 -116 85z"/>
<path d="M2700 3205 c-26 -32 13 -81 48 -59 34 22 22 74 -18 74 -10 0 -23 -7
-30 -15z"/>
<path d="M1460 3142 c-21 -10 -42 -32 -53 -55 -17 -33 -17 -42 -5 -79 28 -88
127 -114 190 -50 34 34 46 94 26 132 -16 30 -74 70 -102 70 -12 0 -37 -8 -56
-18z"/>
<path d="M2630 3036 c-6 -8 -10 -25 -8 -38 2 -18 10 -24 35 -26 28 -3 33 1 39
23 11 45 -37 75 -66 41z"/>
<path d="M2378 2979 c-22 -13 -24 -62 -2 -83 33 -34 94 -5 94 45 0 38 -55 60
-92 38z"/>
<path d="M1673 2888 c-31 -15 -56 -72 -48 -108 9 -41 58 -80 100 -80 42 0 91
39 100 80 8 38 -18 94 -51 109 -30 14 -72 13 -101 -1z"/>
<path d="M466 2874 c-34 -33 -9 -94 38 -94 28 0 56 29 56 57 0 44 -63 69 -94
37z"/>
<path d="M2382 2734 c-32 -22 -30 -69 4 -91 24 -15 29 -15 53 -2 36 20 41 71
9 93 -28 20 -38 20 -66 0z"/>
<path d="M2190 2567 c-35 -17 -48 -61 -30 -94 36 -63 122 -44 128 29 5 54 -49
90 -98 65z"/>
<path d="M1718 2451 c-89 -80 13 -213 121 -157 45 24 63 83 40 129 -32 63
-107 76 -161 28z"/>
<path d="M2810 2331 c-12 -24 -4 -48 20 -56 38 -12 68 23 48 59 -12 22 -55 20
-68 -3z"/>
<path d="M3832 2338 c-33 -33 17 -88 53 -58 25 21 15 64 -15 68 -14 2 -31 -3
-38 -10z"/>
<path d="M4076 2294 c-19 -18 -21 -65 -4 -82 20 -20 65 -14 82 10 21 30 20 44
-4 68 -24 24 -53 26 -74 4z"/>
<path d="M2313 2285 c-49 -21 -58 -71 -18 -110 47 -48 115 -19 115 48 0 54
-46 83 -97 62z"/>
<path d="M2958 2215 c-8 -19 -8 -28 2 -40 18 -21 57 -19 70 4 13 25 13 27 -6
45 -23 24 -53 20 -66 -9z"/>
<path d="M3686 2224 c-19 -19 -20 -25 -3 -48 21 -29 61 -17 65 18 5 43 -32 61
-62 30z"/>
<path d="M2196 2019 c-57 -45 -19 -149 54 -149 37 0 90 47 90 79 0 76 -84 117
-144 70z"/>
<path d="M2960 1980 c-24 -24 -25 -38 -4 -68 18 -26 65 -30 84 -7 18 22 15 66
-6 82 -25 19 -51 16 -74 -7z"/>
<path d="M3200 1920 c-32 -32 -25 -66 18 -89 42 -22 91 25 73 72 -16 41 -59
49 -91 17z"/>
<path d="M1505 1875 c-38 -20 -53 -40 -66 -87 -13 -51 16 -120 60 -142 74 -39
164 -5 190 71 13 37 13 45 -3 87 -10 26 -29 54 -42 63 -36 23 -103 27 -139 8z"/>
<path d="M4767 1801 c-41 -37 -53 -77 -37 -126 17 -50 53 -75 110 -75 57 0 93
25 110 75 24 74 -23 143 -103 152 -38 5 -48 1 -80 -26z"/>
<path d="M953 1794 c-15 -24 -15 -29 -2 -53 11 -20 22 -26 49 -26 27 0 38 6
49 26 13 24 13 29 -2 53 -12 18 -26 26 -47 26 -21 0 -35 -8 -47 -26z"/>
<path d="M4182 1800 c-12 -5 -29 -25 -39 -44 -14 -29 -14 -39 -3 -66 38 -91
165 -67 165 31 0 63 -63 104 -123 79z"/>
<path d="M2490 1783 c-36 -13 -60 -47 -60 -82 1 -53 39 -91 90 -91 33 0 80 53
80 89 0 53 -64 102 -110 84z"/>
<path d="M3620 1740 c-11 -11 -20 -33 -20 -50 0 -17 9 -39 20 -50 11 -11 33
-20 50 -20 17 0 39 9 50 20 11 11 20 33 20 50 0 17 -9 39 -20 50 -11 11 -33
20 -50 20 -17 0 -39 -9 -50 -20z"/>
<path d="M3340 1713 c-41 -15 -55 -87 -22 -116 19 -17 68 -22 88 -9 15 10 34
47 34 67 0 9 -11 27 -25 40 -23 24 -44 29 -75 18z"/>
<path d="M3863 1608 c-29 -14 -47 -59 -38 -97 21 -95 165 -74 165 24 0 66 -64
103 -127 73z"/>
<path d="M4438 1463 c-33 -21 -48 -53 -48 -103 0 -115 164 -151 214 -46 20 42
20 57 2 101 -25 59 -110 84 -168 48z"/>
<path d="M1338 1444 c-59 -31 -76 -124 -35 -185 45 -67 139 -75 196 -18 55 54
53 129 -4 186 -28 28 -40 33 -81 33 -27 -1 -61 -7 -76 -16z"/>
<path d="M2910 1333 c-84 -42 -73 -160 18 -188 30 -9 88 12 107 38 24 34 19
99 -10 131 -13 14 -31 26 -39 26 -8 0 -20 2 -28 5 -7 3 -29 -3 -48 -12z"/>
<path d="M1840 1322 c-20 -9 -44 -33 -55 -54 -18 -34 -19 -40 -5 -80 17 -47
67 -88 107 -88 58 0 123 64 123 120 0 53 -65 120 -117 120 -10 0 -34 -8 -53
-18z"/>
<path d="M3333 1285 c-92 -40 -72 -176 28 -191 43 -6 78 12 102 54 17 29 18
39 8 73 -8 27 -23 46 -44 59 -38 23 -51 24 -94 5z"/>
<path d="M2612 1203 c-68 -33 -83 -119 -31 -177 75 -86 199 -36 199 81 0 47
-22 81 -66 99 -43 18 -61 17 -102 -3z"/>
<path d="M4361 1152 c-51 -25 -74 -63 -74 -117 0 -80 74 -145 149 -130 124 23
153 190 43 245 -47 25 -74 25 -118 2z"/>
<path d="M3854 934 c-57 -28 -82 -113 -51 -174 17 -33 74 -70 109 -70 73 0
125 46 135 118 14 101 -97 174 -193 126z"/>
<path d="M2122 514 c-43 -30 -21 -94 31 -94 40 0 57 15 57 51 0 27 -30 59 -55
59 -6 0 -21 -7 -33 -16z"/>
<path d="M1594 166 c-44 -19 -62 -67 -41 -110 19 -40 64 -62 103 -49 72 24 84
115 21 153 -37 23 -42 24 -83 6z"/>
</g>
</svg>
