<svg width="1119" height="565" viewBox="0 0 1119 565" fill="none" xmlns="http://www.w3.org/2000/svg">
<path d="M349.784 212.245C350.41 209.918 352.804 208.538 355.143 209.157C357.471 209.78 358.857 212.178 358.233 214.51C357.602 216.844 355.208 218.227 352.871 217.598C350.538 216.967 349.157 214.581 349.784 212.245Z" fill="#E53750"/>
<path d="M473.781 158.699C479.011 154.677 486.502 155.657 490.528 160.892C494.54 166.116 493.555 173.609 488.318 177.623C483.096 181.639 475.583 180.659 471.57 175.421C467.558 170.192 468.531 162.708 473.781 158.701" fill="#26BCEC"/>
<path d="M365.372 192.769C366.612 189.772 370.057 188.337 373.061 189.589C376.067 190.831 377.496 194.261 376.248 197.268C375.005 200.265 371.561 201.694 368.556 200.448C365.546 199.206 364.123 195.775 365.37 192.769" fill="#FECC38"/>
<path d="M412.302 165.249C415.302 161.351 420.895 160.607 424.806 163.606C428.72 166.593 429.448 172.189 426.444 176.091C423.454 179.994 417.853 180.738 413.952 177.737C410.044 174.74 409.3 169.147 412.302 165.247" fill="#00ACB0"/>
<path d="M386.589 176.809C388.638 173.276 393.161 172.057 396.694 174.1C400.246 176.142 401.45 180.661 399.409 184.204C397.371 187.742 392.834 188.956 389.301 186.912C385.755 184.873 384.545 180.35 386.589 176.811M441.692 158.975C445.773 154.902 452.369 154.902 456.45 158.975C460.522 163.037 460.522 169.636 456.45 173.704C452.385 177.775 445.768 177.785 441.702 173.704C437.627 169.636 437.617 163.037 441.692 158.975ZM331.003 210.922C331.003 208.513 332.961 206.559 335.38 206.555C337.788 206.555 339.75 208.513 339.752 210.928C339.752 213.345 337.792 215.297 335.375 215.295C332.959 215.295 331.001 213.343 331.003 210.922Z" fill="#233D8D"/>
<path d="M471.048 124.508C476.297 119.247 484.831 119.243 490.092 124.5C495.336 129.748 495.336 138.254 490.073 143.518C484.853 148.763 476.305 148.763 471.06 143.514C465.79 138.258 465.782 129.752 471.046 124.508" fill="#00ACB0"/>
<path d="M436.901 127.141C440.911 121.909 448.403 120.911 453.644 124.929C458.874 128.936 459.861 136.424 455.845 141.66C451.843 146.891 444.329 147.887 439.096 143.865C433.866 139.851 432.873 132.366 436.901 127.141Z" fill="#FECC38"/>
<path d="M341.012 188.081C341.433 184.867 344.387 182.59 347.614 183.021C350.84 183.441 353.11 186.393 352.686 189.615C352.261 192.828 349.303 195.106 346.074 194.676C342.85 194.252 340.588 191.304 341.012 188.081Z" fill="#00ACB0"/>
<path d="M379.213 149.365C381.103 144.824 386.31 142.661 390.866 144.544C395.419 146.423 397.572 151.642 395.686 156.185C393.805 160.731 388.589 162.896 384.042 161.006C379.493 159.121 377.322 153.908 379.213 149.365Z" fill="#E53750"/>
<path d="M357.368 167.181C358.434 163.237 362.489 160.891 366.431 161.95C370.387 163.001 372.722 167.056 371.67 171.006C370.618 174.949 366.549 177.295 362.606 176.23C358.653 175.182 356.31 171.124 357.37 167.181M405.976 135.706C408.861 130.717 415.236 129.01 420.231 131.888C425.218 134.761 426.925 141.135 424.048 146.118C421.172 151.098 414.784 152.815 409.799 149.929C404.812 147.05 403.089 140.684 405.976 135.706ZM312.518 214.504C311.896 212.177 313.278 209.782 315.612 209.153C317.941 208.528 320.341 209.914 320.968 212.248C321.594 214.579 320.209 216.972 317.87 217.595C315.541 218.218 313.141 216.84 312.518 214.504Z" fill="#26BCEC"/>
<path d="M425.402 94.8189C429.108 88.3835 437.352 86.1733 443.795 89.8898C450.221 93.6024 452.424 101.818 448.706 108.265C445.021 114.681 436.766 116.891 430.338 113.175C423.888 109.462 421.674 101.246 425.404 94.8189" fill="#E53750"/>
<path d="M393.1 106.195C395.616 100.102 402.596 97.2041 408.701 99.7278C414.789 102.248 417.686 109.227 415.16 115.323C412.65 121.408 405.651 124.314 399.555 121.781C393.463 119.257 390.562 112.285 393.102 106.195" fill="#00ACB0"/>
<path d="M316.269 189.851C315.838 186.637 318.104 183.676 321.333 183.258C324.563 182.83 327.516 185.092 327.944 188.317C328.364 191.531 326.097 194.494 322.872 194.914C319.641 195.34 316.695 193.077 316.269 189.853" fill="#E53750"/>
<path d="M343.139 142.579C343.79 137.703 348.257 134.269 353.145 134.91C358.029 135.544 361.461 140.028 360.816 144.906C360.179 149.782 355.701 153.22 350.82 152.57C345.938 151.931 342.492 147.455 343.139 142.579Z" fill="#233D8D"/>
<path d="M326.651 165.435C326.657 161.353 329.967 158.035 334.048 158.041C338.143 158.035 341.449 161.345 341.455 165.435C341.461 169.516 338.139 172.836 334.054 172.828C329.963 172.832 326.651 169.522 326.651 165.435ZM365.447 122.465C366.939 116.897 372.654 113.602 378.226 115.091C383.785 116.577 387.087 122.291 385.597 127.847C384.111 133.407 378.387 136.716 372.828 135.217C367.259 133.727 363.947 128.021 365.447 122.465ZM295.586 222.744C294.382 220.654 295.097 217.986 297.191 216.776C299.277 215.573 301.953 216.289 303.163 218.379C304.37 220.469 303.656 223.14 301.558 224.345C299.466 225.548 296.792 224.838 295.584 222.742" fill="#FECC38"/>
<path d="M373.623 77.9488C375.537 70.7721 382.926 66.5075 390.112 68.4298C397.279 70.3541 401.538 77.7221 399.614 84.9067C397.72 92.0578 390.319 96.3304 383.147 94.4021C375.954 92.4798 371.689 85.1177 373.623 77.9488Z" fill="#233D8D"/>
<path d="M345.367 97.2871C346.22 90.7531 352.21 86.1474 358.762 87.007C365.294 87.8666 369.902 93.8584 369.04 100.4C368.191 106.93 362.184 111.544 355.64 110.672C349.101 109.811 344.493 103.829 345.367 97.2871Z" fill="#E53750"/>
<path d="M292.822 197.962C291.579 194.966 293 191.521 296.008 190.283C299.013 189.035 302.453 190.456 303.697 193.457C304.94 196.454 303.519 199.901 300.509 201.143C297.506 202.389 294.07 200.965 292.824 197.96" fill="#233D8D"/>
<path d="M306.528 145.352C305.897 140.476 309.323 136.002 314.209 135.355C319.092 134.705 323.568 138.149 324.209 143.029C324.853 147.903 321.419 152.384 316.536 153.017C311.654 153.66 307.164 150.231 306.528 145.352Z" fill="#26BCEC"/>
<path d="M296.531 171.691C295.48 167.748 297.814 163.687 301.761 162.636C305.714 161.571 309.764 163.917 310.832 167.865C311.893 171.802 309.545 175.869 305.598 176.914C301.647 177.979 297.589 175.639 296.531 171.691ZM322.87 120.153C322.87 114.39 327.54 109.729 333.306 109.729C339.063 109.725 343.73 114.39 343.732 120.145C343.738 125.894 339.067 130.575 333.306 130.561C327.543 130.561 322.866 125.908 322.874 120.151M281.371 235.079C279.668 233.374 279.668 230.61 281.375 228.9C283.078 227.195 285.851 227.195 287.56 228.9C289.269 230.612 289.267 233.376 287.556 235.081C285.847 236.789 283.08 236.791 281.371 235.079Z" fill="#00ACB0"/>
<path d="M319.235 75.043C319.223 67.6159 325.254 61.5827 332.695 61.5827C340.119 61.5886 346.14 67.604 346.146 75.041C346.166 82.4386 340.123 88.4777 332.697 88.4678C325.25 88.4737 319.223 82.4642 319.233 75.041" fill="#26BCEC"/>
<path d="M296.952 101.029C296.084 94.4947 300.676 88.499 307.226 87.6335C313.759 86.7738 319.762 91.3717 320.626 97.9116C321.495 104.434 316.889 110.445 310.344 111.299C303.802 112.155 297.803 107.569 296.952 101.029Z" fill="#233D8D"/>
<path d="M223.794 39.2118C222.926 32.6798 227.518 26.684 234.068 25.8205C240.6 24.9589 246.604 29.5567 247.468 36.0966C248.337 42.6227 243.73 48.6323 237.186 49.484C230.644 50.3417 224.644 45.7537 223.794 39.2118Z" fill="#00ACB0"/>
<path d="M272.282 211.855C270.305 209.286 270.782 205.589 273.368 203.613C275.949 201.634 279.644 202.115 281.621 204.698C283.595 207.269 283.115 210.967 280.53 212.943C277.948 214.923 274.262 214.438 272.28 211.859" fill="#26BCEC"/>
<path d="M271.892 157.496C270.014 152.948 272.169 147.74 276.72 145.854C281.269 143.961 286.483 146.13 288.363 150.678C290.254 155.221 288.097 160.438 283.544 162.311C278.995 164.194 273.771 162.043 271.892 157.496Z" fill="#FECC38"/>
<path d="M132.567 71.3817C130.692 66.8351 132.843 61.628 137.394 59.7411C141.943 57.8484 147.157 60.0172 149.038 64.5637C150.929 69.1064 148.772 74.3233 144.223 76.1964C139.67 78.0793 134.446 75.9282 132.567 71.3817ZM154.874 559.505C152.999 554.958 155.15 549.751 159.701 547.864C164.252 545.975 169.466 548.14 171.349 552.689C173.237 557.229 171.08 562.444 166.529 564.317C161.979 566.202 156.755 564.051 154.876 559.503" fill="#233D8D"/>
<path d="M269.056 185.523C267.019 181.986 268.223 177.459 271.759 175.425C275.304 173.374 279.823 174.591 281.878 178.13C283.922 181.659 282.707 186.194 279.164 188.228C275.626 190.279 271.1 189.062 269.056 185.523ZM194.561 11.0949C192.524 7.55777 193.728 3.0309 197.265 0.996176C200.809 -1.05432 205.329 0.16415 207.383 3.70126C209.43 7.23048 208.212 11.7652 204.671 13.8C201.133 15.8505 196.606 14.634 194.561 11.0949ZM281.149 128.931C279.655 123.364 282.955 117.654 288.526 116.163C294.084 114.673 299.803 117.969 301.295 123.529C302.787 129.081 299.487 134.807 293.922 136.286C288.357 137.778 282.63 134.491 281.147 128.931M270.834 250.672C268.746 249.465 268.031 246.796 269.235 244.702C270.439 242.616 273.119 241.902 275.211 243.105C277.307 244.313 278.023 246.985 276.81 249.075C275.602 251.165 272.934 251.882 270.836 250.672" fill="#E53750"/>
<path d="M265.947 86.295C264.013 79.1261 268.276 71.7384 275.464 69.816C282.634 67.8996 290.009 72.1524 291.939 79.3351C293.873 86.4763 289.602 93.8719 282.426 95.7844C275.237 97.7166 267.858 93.4697 265.947 86.295Z" fill="#FECC38"/>
<path d="M251.159 117.156C248.627 111.072 251.51 104.092 257.612 101.561C263.701 99.0429 270.689 101.931 273.217 108.028C275.749 114.104 272.858 121.1 266.754 123.617C260.656 126.135 253.673 123.257 251.159 117.156Z" fill="#26BCEC"/>
<path d="M256.039 230.589C253.46 228.617 252.967 224.922 254.954 222.347C256.931 219.764 260.622 219.279 263.203 221.259C265.779 223.231 266.272 226.927 264.289 229.504C262.305 232.087 258.621 232.57 256.039 230.589Z" fill="#FECC38"/>
<path d="M241.581 178.179C238.587 174.275 239.318 168.689 243.227 165.689C247.131 162.688 252.73 163.433 255.725 167.337C258.725 171.241 257.995 176.834 254.083 179.821C250.176 182.818 244.571 182.089 241.579 178.185" fill="#00ACB0"/>
<path d="M246.1 205.987C243.214 203.097 243.206 198.416 246.1 195.534C248.987 192.635 253.668 192.643 256.567 195.53C259.46 198.412 259.46 203.105 256.567 205.985C253.678 208.88 248.989 208.878 246.1 205.985" fill="#233D8D"/>
<path d="M87.2524 149.275C84.3671 146.384 84.3592 141.704 87.2524 138.821C90.1396 135.923 94.8208 135.931 97.72 138.817C100.613 141.7 100.615 146.394 97.72 149.273C94.8307 152.167 90.1416 152.167 87.2524 149.275Z" fill="#E53750"/>
<path d="M243.12 148.197C240.239 143.204 241.944 136.84 246.941 133.955C251.922 131.077 258.3 132.786 261.182 137.769C264.063 142.745 262.358 149.131 257.365 152C252.372 154.878 245.993 153.183 243.12 148.195M264.696 268.456C262.368 267.831 260.986 265.44 261.608 263.103C262.23 260.777 264.631 259.393 266.966 260.016C269.301 260.643 270.684 263.036 270.055 265.371C269.427 267.701 267.035 269.083 264.696 268.456Z" fill="#233D8D"/>
<path d="M217.392 110.946C213.662 104.519 215.869 96.2812 222.312 92.5647C228.742 88.862 236.968 91.0663 240.696 97.5037C244.416 103.9 242.208 112.149 235.77 115.852C229.324 119.574 221.099 117.38 217.39 110.942" fill="#00ACB0"/>
<path d="M211.098 144.578C207.076 139.353 208.053 131.869 213.293 127.847C218.523 123.839 226.022 124.822 230.042 130.055C234.06 135.272 233.081 142.778 227.836 146.786C222.606 150.795 215.109 149.823 211.098 144.578Z" fill="#FECC38"/>
<path d="M245.204 252.884C242.204 251.646 240.769 248.204 242.021 245.203C243.264 242.2 246.704 240.773 249.707 242.019C252.707 243.257 254.14 246.699 252.893 249.702C251.649 252.707 248.215 254.126 245.206 252.882" fill="#00ACB0"/>
<path d="M217.657 205.999C213.756 203.002 213.012 197.414 216.014 193.507C219.005 189.597 224.606 188.869 228.512 191.87C232.419 194.857 233.163 200.451 230.16 204.351C227.16 208.254 221.561 208.998 217.657 205.999Z" fill="#E53750"/>
<path d="M229.231 231.689C225.694 229.642 224.475 225.123 226.519 221.594C228.562 218.045 233.085 216.842 236.632 218.881C240.172 220.918 241.388 225.45 239.335 228.98C237.297 232.523 232.771 233.731 229.231 231.689ZM211.378 176.641C207.299 172.559 207.299 165.97 211.378 161.893C215.444 157.827 222.049 157.827 226.121 161.893C230.194 165.958 230.206 172.567 226.121 176.629C222.049 180.7 215.444 180.71 211.378 176.639M263.377 287.222C260.965 287.222 259.009 285.266 259.005 282.849C259.001 280.443 260.963 278.483 263.379 278.481C265.798 278.481 267.754 280.439 267.75 282.855C267.75 285.27 265.796 287.224 263.377 287.222Z" fill="#26BCEC"/>
<path d="M165.556 129.653C160.293 124.409 160.287 115.884 165.548 110.627C170.802 105.389 179.316 105.389 184.585 110.647C189.835 115.862 189.834 124.401 184.579 129.642C179.318 134.906 170.804 134.912 165.554 129.653" fill="#E53750"/>
<path d="M179.515 181.424C174.277 177.422 173.279 169.936 177.301 164.697C181.313 159.472 188.81 158.486 194.05 162.499C199.284 166.497 200.281 174.001 196.255 179.23C192.236 184.455 184.749 185.45 179.515 181.424Z" fill="#00ACB0"/>
<path d="M240.511 277.222C237.294 276.8 235.014 273.846 235.447 270.625C235.867 267.401 238.821 265.134 242.046 265.557C245.263 265.981 247.54 268.937 247.112 272.162C246.688 275.384 243.737 277.646 240.511 277.222Z" fill="#E53750"/>
<path d="M250.404 325.361C247.404 326.603 243.954 325.184 242.715 322.179C241.468 319.176 242.892 315.737 245.896 314.495C248.896 313.253 252.344 314.673 253.587 317.678C254.834 320.682 253.409 324.115 250.402 325.359" fill="#26BCEC"/>
<path d="M201.761 239.057C197.216 237.168 195.051 231.967 196.935 227.414C198.814 222.866 204.036 220.715 208.585 222.6C213.134 224.477 215.301 229.69 213.408 234.232C211.526 238.777 206.308 240.946 201.761 239.057Z" fill="#233D8D"/>
<path d="M219.592 260.879C215.645 259.814 213.296 255.767 214.358 251.829C215.41 247.876 219.469 245.544 223.422 246.593C227.369 247.644 229.718 251.707 228.652 255.648C227.6 259.598 223.541 261.938 219.59 260.877" fill="#FECC38"/>
<path d="M140.513 196.337C135.52 193.453 133.811 187.084 136.695 182.094C139.568 177.112 145.947 175.406 150.936 178.281C155.921 181.154 157.64 187.536 154.75 192.516C151.869 197.498 145.495 199.22 140.511 196.335" fill="#233D8D"/>
<path d="M266.962 305.689C264.633 306.31 262.236 304.93 261.608 302.597C260.982 300.271 262.368 297.873 264.702 297.248C267.039 296.623 269.435 298.009 270.059 300.344C270.678 302.674 269.299 305.07 266.96 305.691M30.1788 192.911C23.7372 189.209 21.5249 180.973 25.245 174.536C28.9611 168.116 37.1848 165.916 43.6382 169.63C50.06 173.311 52.2724 181.559 48.5523 187.98C44.8342 194.428 36.6125 196.634 30.1788 192.911Z" fill="#FECC38"/>
<path d="M158.549 225.183C152.45 222.669 149.549 215.695 152.076 209.595C154.598 203.512 161.584 200.618 167.686 203.142C173.776 205.654 176.685 212.645 174.149 218.733C171.623 224.82 164.647 227.72 158.551 225.181" fill="#E53750"/>
<path d="M242.284 301.942C239.067 302.37 236.101 300.105 235.683 296.883C235.254 293.659 237.518 290.706 240.747 290.284C243.964 289.856 246.93 292.123 247.35 295.345C247.776 298.571 245.515 301.516 242.284 301.94" fill="#233D8D"/>
<path d="M194.968 275.096C190.087 274.446 186.649 269.982 187.291 265.1C187.926 260.218 192.414 256.792 197.297 257.436C202.177 258.071 205.621 262.543 204.97 267.421C204.328 272.299 199.85 275.741 194.968 275.094" fill="#26BCEC"/>
<path d="M217.843 291.568C213.758 291.56 210.436 288.255 210.442 284.174C210.436 280.087 213.75 276.784 217.843 276.78C221.928 276.773 225.251 280.093 225.243 284.174C225.249 288.255 221.936 291.568 217.843 291.568ZM174.832 252.809C169.26 251.317 165.961 245.607 167.451 240.041C168.941 234.487 174.658 231.188 180.219 232.677C185.785 234.164 189.1 239.881 187.596 245.437C186.106 250.997 180.393 254.308 174.832 252.809ZM275.209 322.601C273.117 323.804 270.445 323.088 269.233 320.998C268.025 318.914 268.744 316.237 270.838 315.03C272.93 313.823 275.604 314.537 276.81 316.633C278.017 318.723 277.303 321.395 275.211 322.601" fill="#00ACB0"/>
<path d="M130.274 244.643C123.091 242.73 118.822 235.348 120.746 228.17C122.672 221.009 130.047 216.754 137.239 218.674C144.397 220.567 148.672 227.961 146.741 235.126C144.819 242.312 137.446 246.573 130.272 244.641" fill="#26BCEC"/>
<path d="M149.635 272.869C143.091 272.017 138.485 266.033 139.341 259.487C140.201 252.961 146.199 248.355 152.745 249.215C159.278 250.063 163.9 256.066 163.027 262.602C162.165 269.136 156.175 273.742 149.631 272.867" fill="#233D8D"/>
<path d="M8.14045 325.361C5.14069 326.603 1.69098 325.184 0.451607 322.179C-0.79566 319.176 0.629222 315.737 3.6349 314.495C6.63466 313.253 10.0844 314.673 11.3277 317.678C12.571 320.682 11.1501 324.115 8.14244 325.359" fill="#00ACB0"/>
<path d="M52.6063 286.966C49.6065 288.208 46.1568 286.788 44.9174 283.786C43.6702 280.783 45.095 277.344 48.1007 276.102C51.1005 274.86 54.5482 276.28 55.7915 279.286C57.0349 282.293 55.6139 285.724 52.6063 286.968M217.83 523.211C214.83 524.453 211.38 523.033 210.141 520.03C208.894 517.026 210.318 513.589 213.324 512.345C216.324 511.103 219.772 512.522 221.015 515.529C222.258 518.536 220.837 521.967 217.83 523.211Z" fill="#E53750"/>
<path d="M197.74 311.666C192.858 312.301 188.38 308.878 187.734 303.996C187.083 299.116 190.531 294.645 195.411 294.006C200.294 293.359 204.778 296.79 205.413 301.668C206.056 306.545 202.623 311.035 197.74 311.666Z" fill="#FECC38"/>
<path d="M224.105 321.66C220.158 322.711 216.093 320.379 215.041 316.436C213.975 312.486 216.324 308.441 220.275 307.374C224.218 306.313 228.287 308.655 229.337 312.603C230.403 316.546 228.054 320.602 224.107 321.658M172.519 295.343C166.751 295.343 162.083 290.682 162.083 284.919C162.08 279.168 166.751 274.505 172.51 274.503C178.268 274.499 182.95 279.166 182.94 284.921C182.94 290.678 178.282 295.351 172.519 295.341M287.556 336.802C285.849 338.504 283.082 338.506 281.371 336.802C279.664 335.099 279.666 332.327 281.375 330.619C283.084 328.912 285.851 328.914 287.56 330.623C289.265 332.331 289.269 335.093 287.556 336.8" fill="#E53750"/>
<path d="M127.361 298.977C119.927 298.991 113.89 292.964 113.89 285.531C113.894 278.113 119.915 272.1 127.359 272.094C134.764 272.074 140.809 278.111 140.803 285.529C140.807 292.968 134.792 298.989 127.359 298.975" fill="#FECC38"/>
<path d="M153.372 321.237C146.834 322.104 140.832 317.516 139.968 310.972C139.105 304.446 143.708 298.448 150.254 297.585C156.786 296.717 162.802 301.319 163.654 307.857C164.513 314.393 159.92 320.389 153.372 321.237Z" fill="#26BCEC"/>
<path d="M264.31 345.886C261.738 347.861 258.034 347.384 256.06 344.802C254.077 342.223 254.56 338.532 257.146 336.556C259.717 334.581 263.417 335.062 265.395 337.641C267.378 340.223 266.895 343.906 264.31 345.886Z" fill="#FECC38"/>
<path d="M103.471 393.197C100.899 395.173 97.1951 394.696 95.2216 392.113C93.2382 389.534 93.7217 385.843 96.307 383.867C98.8785 381.892 102.579 382.373 104.556 384.952C106.54 387.535 106.056 391.218 103.471 393.197Z" fill="#233D8D"/>
<path d="M209.896 346.274C205.345 348.147 200.133 345.998 198.244 341.452C196.355 336.909 198.524 331.698 203.075 329.819C207.622 327.932 212.844 330.085 214.719 334.634C216.604 339.179 214.451 344.399 209.898 346.276" fill="#00ACB0"/>
<path d="M88.8447 257.399C84.2938 259.272 79.0817 257.123 77.193 252.575C75.2984 248.03 77.4693 242.821 82.0222 240.942C86.5712 239.053 91.7912 241.208 93.666 245.753C95.5527 250.301 93.3976 255.52 88.8467 257.397M237.948 349.108C234.408 351.142 229.877 349.942 227.84 346.406C225.788 342.865 227.007 338.35 230.548 336.302C234.08 334.251 238.619 335.466 240.656 339.007C242.709 342.542 241.491 347.065 237.948 349.108ZM181.302 337.025C175.729 338.518 170.014 335.221 168.522 329.656C167.032 324.101 170.333 318.39 175.897 316.899C181.454 315.407 187.185 318.703 188.666 324.265C190.161 329.825 186.87 335.547 181.304 337.025M303.16 347.329C301.952 349.415 299.282 350.129 297.184 348.926C295.096 347.724 294.381 345.048 295.585 342.956C296.795 340.866 299.469 340.149 301.561 341.359C303.653 342.57 304.371 345.237 303.16 347.329Z" fill="#233D8D"/>
<path d="M85.8809 352.215C78.7032 354.147 71.3103 349.884 69.3822 342.707C67.4679 335.542 71.7267 328.176 78.9143 326.244C86.0644 324.312 93.4671 328.581 95.3814 335.748C97.3154 342.93 93.0625 350.302 85.8809 352.211" fill="#26BCEC"/>
<path d="M169.518 366.99C163.428 369.52 156.442 366.635 153.908 360.543C151.388 354.461 154.279 347.477 160.381 344.951C166.463 342.422 173.465 345.312 175.986 351.408C178.506 357.501 175.624 364.478 169.518 366.99Z" fill="#FECC38"/>
<path d="M283.06 362.112C281.086 364.687 277.386 365.18 274.81 363.197C272.225 361.219 271.738 357.532 273.721 354.955C275.695 352.378 279.395 351.885 281.974 353.871C284.56 355.848 285.043 359.529 283.06 362.112Z" fill="#00ACB0"/>
<path d="M230.601 376.557C226.694 379.546 221.101 378.816 218.097 374.91C215.094 371.012 215.841 365.421 219.749 362.426C223.651 359.429 229.252 360.158 232.241 364.068C235.241 367.972 234.511 373.571 230.603 376.56" fill="#E53750"/>
<path d="M140.725 488.839C136.817 491.828 131.224 491.099 128.22 487.193C125.215 483.295 125.961 477.702 129.868 474.707C133.772 471.71 139.373 472.439 142.361 476.347C145.36 480.251 144.63 485.846 140.723 488.837M258.435 372.042C255.542 374.924 250.857 374.932 247.97 372.042C245.073 369.155 245.079 364.481 247.97 361.582C250.851 358.696 255.548 358.694 258.433 361.586C261.329 364.471 261.327 369.153 258.433 372.044M200.591 375.019C195.593 377.898 189.218 376.194 186.335 371.202C183.453 366.226 185.164 359.855 190.15 356.977C195.131 354.098 201.523 355.8 204.394 360.788C207.276 365.776 205.579 372.15 200.586 375.019M320.965 353.461C320.339 355.788 317.945 357.168 315.606 356.547C313.274 355.928 311.888 353.53 312.514 351.196C313.14 348.863 315.537 347.481 317.872 348.108C320.205 348.739 321.59 351.125 320.963 353.461" fill="#26BCEC"/>
<path d="M163.301 400.723C156.868 404.446 148.624 402.241 144.904 395.806C141.198 389.378 143.404 381.161 149.848 377.436C156.25 373.722 164.507 375.93 168.212 382.359C171.942 388.797 169.743 397.02 163.301 400.723Z" fill="#E53750"/>
<path d="M196.967 407.006C191.741 411.029 184.246 410.051 180.222 404.818C176.206 399.593 177.191 392.101 182.428 388.083C187.65 384.066 195.163 385.046 199.176 390.287C203.188 395.518 202.217 403.004 196.967 407.006Z" fill="#00ACB0"/>
<path d="M305.378 372.937C304.14 375.934 300.693 377.367 297.689 376.117C294.683 374.875 293.254 371.44 294.502 368.437C295.745 365.441 299.189 364.009 302.194 365.255C305.202 366.497 306.625 369.934 305.378 372.937Z" fill="#E53750"/>
<path d="M258.446 400.455C255.447 404.353 249.854 405.096 245.942 402.099C242.031 399.11 241.304 393.515 244.304 389.613C247.296 385.709 252.895 384.966 256.796 387.967C260.704 390.964 261.448 396.557 258.446 400.457" fill="#233D8D"/>
<path d="M284.162 388.897C282.114 392.427 277.59 393.649 274.054 391.606C270.507 389.564 269.301 385.045 271.342 381.5C273.379 377.963 277.914 376.748 281.45 378.795C284.997 380.833 286.207 385.356 284.162 388.895M229.059 406.731C224.98 410.804 218.383 410.804 214.301 406.731C210.23 402.669 210.23 396.07 214.301 392.003C218.367 387.933 224.984 387.925 229.049 392.003C233.125 396.07 233.139 402.669 229.059 406.731ZM339.744 354.782C339.744 357.192 337.791 359.145 335.371 359.149C332.959 359.149 331 357.194 330.998 354.778C330.998 352.361 332.957 350.407 335.375 350.409C337.791 350.413 339.748 352.361 339.746 354.782" fill="#FECC38"/>
<path d="M150.326 441.199C145.077 446.459 136.541 446.463 131.282 441.207C126.036 435.958 126.032 427.451 131.295 422.188C136.517 416.944 145.065 416.94 150.31 422.192C155.58 427.447 155.59 435.954 150.326 441.199Z" fill="#E53750"/>
<path d="M198.499 450.268C194.488 455.501 186.997 456.499 181.753 452.48C176.523 448.474 175.533 440.982 179.553 435.749C183.555 430.518 191.066 429.525 196.3 433.545C201.53 437.561 202.528 445.043 198.499 450.268ZM329.738 377.625C329.318 380.839 326.363 383.115 323.136 382.685C319.91 382.265 317.64 379.313 318.064 376.092C318.489 372.878 321.447 370.601 324.676 371.028C327.901 371.452 330.162 374.4 329.738 377.625Z" fill="#233D8D"/>
<path d="M291.537 416.341C289.646 420.881 284.44 423.044 279.885 421.161C275.33 419.282 273.179 414.063 275.066 409.521C276.945 404.974 282.161 402.811 286.706 404.702C291.257 406.583 293.427 411.794 291.537 416.339" fill="#26BCEC"/>
<path d="M313.379 398.524C312.317 402.467 308.263 404.814 304.32 403.755C300.363 402.704 298.028 398.648 299.08 394.699C300.134 390.756 304.202 388.41 308.145 389.474C312.098 390.523 314.438 394.581 313.379 398.524ZM92.2314 498.638C91.1696 502.581 87.114 504.927 83.1729 503.867C79.214 502.814 76.8774 498.76 77.9312 494.811C78.9871 490.868 83.0525 488.517 86.9976 489.582C90.9506 490.635 93.2931 494.689 92.2353 498.638M264.775 429.999C261.889 434.988 255.519 436.695 250.52 433.816C245.533 430.944 243.824 424.57 246.703 419.587C249.577 414.607 255.965 412.89 260.948 415.776C265.937 418.655 267.658 425.023 264.773 430.001M358.233 351.201C358.854 353.528 357.473 355.923 355.138 356.55C352.81 357.173 350.41 355.787 349.782 353.455C349.157 351.124 350.542 348.729 352.881 348.108C355.213 347.485 357.609 348.863 358.233 351.199" fill="#00ACB0"/>
<path d="M245.348 470.888C241.642 477.323 233.397 479.533 226.955 475.817C220.529 472.104 218.325 463.888 222.041 457.441C225.731 451.025 233.985 448.815 240.414 452.532C246.862 456.244 249.074 464.46 245.348 470.888Z" fill="#26BCEC"/>
<path d="M277.646 459.511C275.13 465.603 268.15 468.502 262.046 465.978C255.957 463.46 253.06 456.481 255.586 450.382C258.097 444.298 265.095 441.396 271.191 443.927C277.283 446.451 280.186 453.423 277.644 459.513" fill="#233D8D"/>
<path d="M354.482 375.855C354.908 379.068 352.642 382.03 349.416 382.448C346.191 382.876 343.239 380.614 342.812 377.389C342.388 374.175 344.656 371.211 347.884 370.793C351.109 370.368 354.061 372.627 354.484 375.853" fill="#26BCEC"/>
<path d="M327.613 423.129C326.962 428.005 322.494 431.438 317.608 430.799C312.721 430.162 309.291 425.678 309.934 420.803C310.574 415.925 315.052 412.488 319.93 413.137C324.815 413.776 328.259 418.249 327.613 423.125" fill="#FECC38"/>
<path d="M344.094 400.272C344.088 404.353 340.778 407.672 336.697 407.666C332.604 407.673 329.296 404.361 329.29 400.272C329.286 396.191 332.606 392.87 336.691 392.878C340.782 392.874 344.098 396.187 344.094 400.272ZM305.298 443.242C303.804 448.81 298.089 452.104 292.518 450.616C286.96 449.129 283.656 443.415 285.148 437.859C286.634 432.299 292.358 428.991 297.917 430.489C303.486 431.98 306.798 437.686 305.298 443.242ZM375.159 342.962C376.363 345.052 375.648 347.718 373.554 348.929C371.468 350.135 368.79 349.418 367.581 347.328C366.373 345.238 367.087 342.566 369.185 341.362C371.277 340.159 373.949 340.869 375.157 342.964" fill="#E53750"/>
<path d="M297.126 487.757C295.212 494.933 287.823 499.2 280.637 497.276C273.47 495.353 269.211 487.983 271.135 480.799C273.029 473.648 280.43 469.377 287.602 471.303C294.793 473.226 299.058 480.59 297.124 487.759" fill="#FECC38"/>
<path d="M325.381 468.419C324.528 474.951 318.538 479.558 311.986 478.699C305.454 477.839 300.846 471.845 301.704 465.305C302.557 458.775 308.564 454.162 315.104 455.033C321.647 455.895 326.255 461.875 325.381 468.417" fill="#26BCEC"/>
<path d="M377.923 367.745C379.166 370.742 377.745 374.186 374.738 375.425C371.732 376.671 368.292 375.247 367.047 372.244C365.804 369.247 367.229 365.803 370.234 364.561C373.242 363.315 376.678 364.738 377.923 367.743" fill="#FECC38"/>
<path d="M364.217 420.355C364.853 425.232 361.427 429.704 356.54 430.351C351.656 431.001 347.18 427.555 346.541 422.681C345.893 417.803 349.327 413.324 354.21 412.689C359.09 412.046 363.578 415.475 364.215 420.355" fill="#00ACB0"/>
<path d="M374.219 394.013C375.271 397.961 372.936 402.018 368.989 403.071C365.036 404.136 360.986 401.789 359.919 397.842C358.857 393.903 361.205 389.837 365.154 388.792C369.102 387.728 373.161 390.068 374.219 394.017M347.876 445.552C347.876 451.315 343.211 455.976 337.442 455.976C331.687 455.98 327.018 451.317 327.018 445.562C327.018 439.812 331.687 435.132 337.446 435.144C343.209 435.144 347.886 439.801 347.88 445.554M389.379 330.625C391.081 332.331 391.083 335.095 389.376 336.805C387.67 338.508 384.896 338.508 383.189 336.805C381.479 335.093 381.481 332.329 383.192 330.621C384.903 328.918 387.668 328.914 389.377 330.625" fill="#233D8D"/>
<path d="M351.514 490.663C351.526 498.09 345.495 504.121 338.055 504.121C330.63 504.115 324.609 498.1 324.605 490.663C324.581 483.265 330.624 477.226 338.051 477.236C345.497 477.23 351.524 483.238 351.51 490.663" fill="#00ACB0"/>
<path d="M373.794 464.681C374.662 471.213 370.07 477.208 363.52 478.074C356.987 478.934 350.984 474.336 350.12 467.796C349.251 461.27 353.857 455.26 360.402 454.408C366.944 453.551 372.945 458.139 373.794 464.681Z" fill="#FECC38"/>
<path d="M398.465 353.851C400.443 356.42 399.965 360.121 397.38 362.093C394.799 364.074 391.104 363.591 389.127 361.008C387.149 358.437 387.631 354.739 390.216 352.763C392.797 350.784 396.484 351.269 398.465 353.847" fill="#00ACB0"/>
<path d="M398.857 408.209C400.731 412.758 398.58 417.965 394.029 419.852C389.48 421.745 384.266 419.576 382.386 415.027C380.495 410.485 382.652 405.272 387.201 403.395C391.754 401.514 396.978 403.663 398.857 408.209Z" fill="#E53750"/>
<path d="M401.694 380.183C403.733 383.722 402.527 388.247 398.99 390.281C395.446 392.332 390.927 391.115 388.874 387.58C386.828 384.047 388.041 379.512 391.584 377.48C395.122 375.429 399.65 376.646 401.694 380.183ZM389.602 436.774C391.094 442.342 387.795 448.052 382.221 449.545C376.666 451.033 370.947 447.737 369.453 442.177C367.963 436.625 371.262 430.899 376.83 429.42C382.395 427.928 388.122 431.214 389.604 436.774" fill="#26BCEC"/>
<path d="M404.8 479.41C406.734 486.579 402.472 493.967 395.288 495.889C388.114 497.806 380.739 493.553 378.809 486.366C376.871 479.229 381.144 471.831 388.318 469.923C395.509 467.991 402.888 472.236 404.8 479.412" fill="#E53750"/>
<path d="M419.591 448.548C422.121 454.633 419.236 461.614 413.134 464.144C407.048 466.664 400.057 463.773 397.529 457.677C395.003 451.604 397.893 444.605 403.995 442.089C410.093 439.57 417.075 442.448 419.591 448.548Z" fill="#00ACB0"/>
<path d="M414.71 335.117C417.287 337.088 417.78 340.783 415.795 343.358C413.816 345.941 410.125 346.426 407.546 344.446C404.966 342.475 404.475 338.778 406.46 336.201C408.44 333.618 412.124 333.135 414.71 335.117Z" fill="#E53750"/>
<path d="M429.171 387.526C432.163 391.43 431.432 397.018 427.523 400.019C423.619 403.02 418.02 402.272 415.025 398.368C412.025 394.465 412.755 388.873 416.669 385.888C420.576 382.891 426.177 383.621 429.171 387.524" fill="#233D8D"/>
<path d="M424.648 359.719C427.534 362.609 427.542 367.29 424.648 370.172C421.761 373.071 417.08 373.063 414.181 370.176C411.288 367.294 411.286 362.601 414.181 359.721C417.07 356.826 421.759 356.828 424.648 359.721M427.628 417.509C430.51 422.501 428.805 428.87 423.808 431.75C418.827 434.629 412.448 432.919 409.567 427.937C406.685 422.961 408.391 416.575 413.384 413.706C418.377 410.827 424.755 412.523 427.628 417.511" fill="#FECC38"/>
<path d="M453.358 454.76C457.082 461.188 454.878 469.425 448.434 473.14C442 476.842 433.779 474.642 430.051 468.203C426.331 461.805 428.541 453.557 434.977 449.855C441.422 446.128 449.65 448.325 453.356 454.764" fill="#233D8D"/>
<path d="M459.647 421.128C463.673 426.353 462.692 433.837 457.453 437.859C452.223 441.868 444.723 440.886 440.705 435.651C436.685 430.436 437.666 422.928 442.91 418.922C448.146 414.913 455.639 415.885 459.645 421.13" fill="#E53750"/>
<path d="M453.092 359.707C456.994 362.704 457.738 368.29 454.736 372.2C451.744 376.109 446.143 376.833 442.238 373.84C438.33 370.849 437.586 365.251 440.59 361.356C443.585 357.452 449.186 356.706 453.09 359.705" fill="#26BCEC"/>
<path d="M459.371 389.065C463.45 393.142 463.45 399.735 459.371 403.813C455.305 407.878 448.7 407.878 444.628 403.813C440.555 399.747 440.547 393.136 444.628 389.077C448.7 385.003 455.305 384.995 459.371 389.067" fill="#00ACB0"/>
<path d="M493.87 418.396C499.136 423.641 499.14 432.166 493.878 437.423C488.625 442.663 480.111 442.663 474.842 437.407C469.592 432.186 469.592 423.645 474.846 418.408C480.107 413.144 488.621 413.136 493.87 418.395" fill="#26BCEC"/>
<path d="M491.235 384.281C496.473 388.284 497.471 395.77 493.449 401.009C489.439 406.233 481.94 407.223 476.702 403.209C471.466 399.207 470.47 391.704 474.496 386.476C478.514 381.251 486.005 380.255 491.235 384.281Z" fill="#233D8D"/>
<path d="M383.195 228.903C384.902 227.202 387.669 227.2 389.38 228.903C391.087 230.609 391.085 233.379 389.38 235.086C387.667 236.794 384.9 236.792 383.193 235.082C381.486 233.375 381.482 230.613 383.193 228.905" fill="#FECC38"/>
<path d="M406.44 219.82C409.011 217.849 412.715 218.326 414.689 220.909C416.672 223.486 416.189 227.175 413.603 229.15C411.032 231.128 407.332 230.649 405.354 228.066C403.371 225.483 403.854 221.802 406.44 219.824" fill="#233D8D"/>
<path d="M367.588 218.377C368.796 216.291 371.468 215.577 373.564 216.78C375.652 217.982 376.366 220.658 375.162 222.75C373.952 224.84 371.278 225.557 369.186 224.347C367.094 223.136 366.376 220.469 367.588 218.377Z" fill="#00ACB0"/>
<path d="M387.688 203.593C389.662 201.018 393.36 200.525 395.937 202.508C398.523 204.486 399.008 208.173 397.027 210.75C395.053 213.325 391.353 213.818 388.774 211.834C386.188 209.857 385.705 206.176 387.688 203.593Z" fill="#26BCEC"/>
<path d="M440.148 189.149C444.056 186.16 449.649 186.89 452.652 190.795C455.656 194.693 454.91 200.287 451.003 203.28C447.099 206.277 441.498 205.547 438.51 201.637C435.51 197.734 436.241 192.134 440.148 189.145" fill="#FECC38"/>
<path d="M412.315 193.664C415.208 190.782 419.893 190.774 422.779 193.664C425.68 196.549 425.672 201.226 422.783 204.122C419.897 207.012 415.2 207.014 412.317 204.122C409.42 201.235 409.422 196.551 412.317 193.664" fill="#E53750"/>
<path d="M612.977 220.64H573.856V257.103H615.018C617.287 257.103 618.422 258.089 618.422 260.072V269.146C618.422 271.348 617.285 272.444 615.016 272.444H559.733C557.578 272.444 556.503 271.35 556.503 269.148V159.596C556.503 157.506 557.578 156.461 559.733 156.461H614.507C616.776 156.461 617.909 157.506 617.909 159.596V168.671C617.909 170.872 616.774 171.97 614.507 171.97H573.852V205.793H612.975C615.016 205.793 616.038 206.894 616.038 209.092V217.341C616.038 219.544 615.016 220.642 612.975 220.642M680.791 241.097C679.398 241.097 678.293 240.427 677.484 239.086L651.058 187.972V269.144C651.058 271.346 650.038 272.444 647.999 272.444H637.111C634.952 272.444 633.875 271.348 633.875 269.148V159.596C633.875 157.506 634.952 156.461 637.111 156.461H647.656C649.582 156.461 650.888 157.112 651.567 158.413L680.661 214.687L709.913 158.441C710.591 157.12 711.837 156.461 713.652 156.461H724.199C726.35 156.461 727.43 157.506 727.43 159.596V269.148C727.43 271.348 726.35 272.446 724.197 272.446H713.307C711.266 272.446 710.248 271.352 710.248 269.154V188.193L684.089 239.218C683.509 240.474 682.406 241.101 680.783 241.101M795.489 241.097C794.093 241.097 792.99 240.427 792.179 239.086L765.757 187.972V269.144C765.757 271.346 764.735 272.444 762.694 272.444H751.807C749.651 272.444 748.576 271.348 748.576 269.148V159.596C748.576 157.506 749.649 156.461 751.805 156.461H762.353C764.279 156.461 765.586 157.112 766.267 158.413L795.356 214.687L824.61 158.441C825.291 157.12 826.536 156.461 828.352 156.461H838.898C841.049 156.461 842.131 157.506 842.131 159.596V269.148C842.131 271.348 841.051 272.446 838.898 272.446H828.01C825.968 272.446 824.951 271.352 824.951 269.154V188.193L798.79 239.218C798.21 240.474 797.109 241.101 795.485 241.101M885.998 229.053H915.937L901.135 173.782H900.8L885.998 229.053ZM892.975 156.457H907.776C909.927 156.457 911.348 157.561 912.025 159.758L945.022 268.978C945.366 269.968 945.279 270.792 944.77 271.455C944.257 272.113 943.495 272.44 942.475 272.44H930.736C928.92 272.44 927.673 271.455 926.992 269.471L919.678 244.065H881.724L874.481 269.487C874.017 271.459 872.73 272.444 870.625 272.444H858.523C856.084 272.444 855.148 271.242 855.717 268.832L888.72 159.612C889.399 157.508 890.816 156.457 892.971 156.457M993.723 274.095C980.566 274.095 970.842 270.851 964.55 264.361C958.255 257.874 955.109 248.028 955.109 234.83V159.596C955.109 157.506 956.185 156.461 958.342 156.461H969.232C971.495 156.461 972.63 157.506 972.63 159.596V233.345C972.63 241.922 974.274 248.274 977.564 252.399C980.852 256.523 986.238 258.586 993.723 258.586C1001.21 258.586 1006.59 256.523 1009.88 252.399C1013.17 248.274 1014.82 241.922 1014.82 233.343V159.592C1014.82 157.502 1015.89 156.457 1018.05 156.457H1029.1C1031.26 156.457 1032.34 157.502 1032.34 159.592V234.826C1032.34 261.005 1019.46 274.095 993.723 274.095ZM1114.19 243.077C1114.19 253.306 1110.78 260.979 1103.98 266.092C1097.17 271.206 1087.65 273.761 1075.4 273.761C1064.06 273.761 1055.16 272.496 1048.7 269.968C1046.54 268.978 1045.64 267.657 1045.97 266.005L1048.36 257.594C1048.92 255.283 1050.28 254.57 1052.44 255.449C1058.56 257.651 1065.71 258.749 1073.87 258.749C1088.95 258.749 1096.49 253.412 1096.49 242.734C1096.49 237.894 1094.82 233.873 1091.48 230.683C1088.13 227.493 1082.78 223.921 1075.42 219.952L1064.72 213.733C1061.86 212.067 1058.98 209.833 1056.09 207.03C1053.2 204.222 1051.05 200.977 1049.63 197.294C1048.21 193.607 1047.51 189.456 1047.51 184.837C1047.51 164.819 1059.58 154.809 1083.73 154.809C1093.15 154.809 1100.97 155.964 1107.21 158.273C1109.47 159.156 1110.38 160.475 1109.93 162.236L1107.55 170.483C1106.98 172.573 1105.56 173.234 1103.3 172.463C1098.19 170.815 1092.12 169.991 1085.09 169.991C1078.06 169.991 1072.99 171.177 1069.87 173.553C1066.75 175.927 1065.19 179.764 1065.19 185.06C1065.19 187.489 1065.64 189.727 1066.54 191.769C1067.44 193.81 1069.01 195.772 1071.27 197.645C1073.52 199.524 1075.52 200.977 1077.26 202.006C1079 203.037 1081.62 204.581 1085.11 206.643C1088.99 208.93 1092.02 210.72 1094.2 212.006C1096.38 213.297 1098.95 215.092 1101.91 217.396C1104.86 219.703 1107.08 221.951 1108.56 224.145C1110.03 226.344 1111.34 229.086 1112.48 232.377C1113.62 235.673 1114.19 239.236 1114.19 243.077ZM598.62 393.067C603.849 393.067 609.087 391.963 614.319 389.764C616.241 389.104 617.522 389.875 618.163 392.071L620.887 400.159C621.311 401.588 620.459 402.854 618.321 403.952C612.77 407.036 605.347 408.574 596.06 408.574C581.424 408.574 570.507 403.848 563.299 394.386C556.088 384.928 552.485 369.8 552.485 349.015C552.485 328.338 556.033 313.241 563.138 303.726C570.238 294.213 580.998 289.452 595.417 289.452C603.745 289.452 611.007 290.938 617.204 293.908C619.444 294.899 620.299 296.165 619.766 297.703L617.2 305.787C616.561 307.881 615.28 308.594 613.358 307.936C608.657 305.954 603.53 304.964 597.98 304.964C587.943 304.964 580.68 308.322 576.196 315.03C571.709 321.739 569.467 333.07 569.467 349.017C569.467 364.967 571.764 376.296 576.354 383.008C580.947 389.715 588.373 393.069 598.622 393.069M648.633 383.002C652.53 389.93 658.642 393.392 666.973 393.392C675.305 393.392 681.415 389.93 685.317 383.002C689.212 376.071 691.164 364.8 691.164 349.178C691.164 333.451 689.21 322.094 685.317 315.109C681.415 308.125 675.305 304.633 666.973 304.633C658.644 304.633 652.53 308.123 648.633 315.109C644.731 322.094 642.785 333.451 642.785 349.178C642.785 364.8 644.731 376.071 648.633 383.002ZM636.298 303.807C643.186 294.237 653.409 289.454 666.973 289.454C680.537 289.454 690.763 294.237 697.651 303.807C704.539 313.377 707.982 328.5 707.982 349.178C707.982 369.861 704.539 384.928 697.651 394.384C690.763 403.848 680.481 408.574 666.815 408.574C653.359 408.574 643.184 403.818 636.296 394.299C629.409 384.79 625.965 369.746 625.965 349.178C625.965 328.5 629.413 313.377 636.298 303.807ZM796.949 294.071V403.787C796.949 405.991 795.879 407.087 793.736 407.087H783.618C781.692 407.087 780.354 406.271 779.604 404.638L738.805 322.126V403.791C738.805 405.993 737.842 407.089 735.92 407.089H725.829C723.796 407.089 722.784 405.995 722.784 403.791V294.241C722.784 292.151 723.79 291.106 725.803 291.106H735.829C737.846 291.106 739.223 291.898 739.965 293.478L780.774 376.371V294.253C780.774 292.155 781.784 291.106 783.813 291.106H793.746C795.883 291.106 796.953 292.096 796.953 294.077M889.428 294.071V403.787C889.428 405.991 888.355 407.087 886.211 407.087H876.093C874.167 407.087 872.829 406.271 872.079 404.638L831.274 322.126V403.791C831.274 405.993 830.315 407.089 828.393 407.089H818.3C816.272 407.089 815.257 405.995 815.257 403.791V294.241C815.257 292.151 816.264 291.106 818.281 291.106H828.302C830.315 291.106 831.697 291.898 832.439 293.478L873.247 376.371V294.253C873.247 292.155 874.26 291.106 876.287 291.106H886.221C888.357 291.106 889.426 292.096 889.426 294.077M960.919 355.282H924.074V391.744H962.841C964.973 391.744 966.039 392.73 966.039 394.711V403.787C966.039 405.989 964.973 407.085 962.841 407.085H910.78C908.743 407.085 907.733 405.991 907.733 403.789V294.237C907.733 292.147 908.743 291.102 910.778 291.102H962.354C964.489 291.102 965.561 292.147 965.561 294.237V303.312C965.561 305.513 964.487 306.611 962.352 306.611H924.066V340.434H960.911C962.835 340.434 963.797 341.532 963.797 343.733V351.982C963.797 354.184 962.835 355.282 960.911 355.282M1022.03 393.067C1027.26 393.067 1032.49 391.963 1037.73 389.764C1039.65 389.104 1040.93 389.875 1041.57 392.071L1044.29 400.159C1044.72 401.588 1043.87 402.854 1041.73 403.952C1036.18 407.036 1028.76 408.574 1019.47 408.574C1004.83 408.574 993.916 403.848 986.705 394.386C979.498 384.928 975.894 369.8 975.894 349.015C975.894 328.338 979.447 313.241 986.547 303.726C993.648 294.213 1004.41 289.452 1018.83 289.452C1027.15 289.452 1034.42 290.938 1040.61 293.908C1042.86 294.899 1043.71 296.165 1043.17 297.703L1040.61 305.787C1039.97 307.881 1038.69 308.594 1036.77 307.936C1032.07 305.954 1026.94 304.964 1021.39 304.964C1011.35 304.964 1004.09 308.322 999.604 315.03C995.116 321.739 992.875 333.07 992.875 349.017C992.875 364.967 995.172 376.296 999.762 383.008C1004.35 389.715 1011.78 393.069 1022.03 393.069M1052.69 303.642V294.237C1052.69 292.151 1053.7 291.102 1055.73 291.102H1115.64C1117.77 291.102 1118.84 292.151 1118.84 294.237V303.642C1118.84 305.731 1117.77 306.776 1115.64 306.776H1094.02V403.789C1094.02 405.991 1092.95 407.089 1090.81 407.089H1080.56C1078.53 407.089 1077.52 405.991 1077.52 403.789V306.776H1055.73C1053.7 306.776 1052.69 305.731 1052.69 303.642Z" fill="#272350"/>
<path d="M971.25 132.871C971.25 128.309 974.952 124.61 979.519 124.61C984.084 124.61 987.788 128.309 987.788 132.871C987.788 137.433 984.084 141.132 979.519 141.132C974.952 141.132 971.25 137.433 971.25 132.871ZM999.655 132.871C999.655 128.309 1003.36 124.61 1007.92 124.61C1012.49 124.61 1016.19 128.309 1016.19 132.871C1016.19 137.433 1012.49 141.132 1007.92 141.132C1003.36 141.132 999.655 137.433 999.655 132.871Z" fill="#E53750"/>
</svg>
