<svg width="563" height="68" viewBox="0 0 563 68" fill="none" xmlns="http://www.w3.org/2000/svg">
<rect width="528" height="41" fill="#FECC38"/>
<path d="M15.55 55L31.15 20H39.15L54.8 55H46.3L33.5 24.1H36.7L23.85 55H15.55ZM23.35 47.5L25.5 41.35H43.5L45.7 47.5H23.35ZM65.6137 55.6C63.247 55.6 61.0637 55.1667 59.0637 54.3C57.097 53.4 55.4803 52.1333 54.2137 50.5L58.7137 45.1C59.6803 46.3667 60.697 47.3333 61.7637 48C62.8303 48.6333 63.9803 48.95 65.2137 48.95C68.5137 48.95 70.1637 47.0167 70.1637 43.15V26.5H57.8637V20H78.2137V42.7C78.2137 47.0333 77.147 50.2667 75.0137 52.4C72.8803 54.5333 69.747 55.6 65.6137 55.6ZM103.214 55.6C100.448 55.6 97.8811 55.15 95.5145 54.25C93.1811 53.35 91.1478 52.0833 89.4145 50.45C87.7145 48.8167 86.3811 46.9 85.4145 44.7C84.4811 42.5 84.0145 40.1 84.0145 37.5C84.0145 34.9 84.4811 32.5 85.4145 30.3C86.3811 28.1 87.7311 26.1833 89.4645 24.55C91.1978 22.9167 93.2311 21.65 95.5645 20.75C97.8978 19.85 100.431 19.4 103.164 19.4C105.931 19.4 108.464 19.85 110.764 20.75C113.098 21.65 115.114 22.9167 116.814 24.55C118.548 26.1833 119.898 28.1 120.864 30.3C121.831 32.4667 122.314 34.8667 122.314 37.5C122.314 40.1 121.831 42.5167 120.864 44.75C119.898 46.95 118.548 48.8667 116.814 50.5C115.114 52.1 113.098 53.35 110.764 54.25C108.464 55.15 105.948 55.6 103.214 55.6ZM103.164 48.7C104.731 48.7 106.164 48.4333 107.464 47.9C108.798 47.3667 109.964 46.6 110.964 45.6C111.964 44.6 112.731 43.4167 113.264 42.05C113.831 40.6833 114.114 39.1667 114.114 37.5C114.114 35.8333 113.831 34.3167 113.264 32.95C112.731 31.5833 111.964 30.4 110.964 29.4C109.998 28.4 108.848 27.6333 107.514 27.1C106.181 26.5667 104.731 26.3 103.164 26.3C101.598 26.3 100.148 26.5667 98.8145 27.1C97.5145 27.6333 96.3645 28.4 95.3645 29.4C94.3645 30.4 93.5811 31.5833 93.0145 32.95C92.4811 34.3167 92.2145 35.8333 92.2145 37.5C92.2145 39.1333 92.4811 40.65 93.0145 42.05C93.5811 43.4167 94.3478 44.6 95.3145 45.6C96.3145 46.6 97.4811 47.3667 98.8145 47.9C100.148 48.4333 101.598 48.7 103.164 48.7ZM143.952 55.6C138.985 55.6 135.102 54.2167 132.302 51.45C129.502 48.6833 128.102 44.7333 128.102 39.6V20H136.202V39.3C136.202 42.6333 136.885 45.0333 138.252 46.5C139.619 47.9667 141.535 48.7 144.002 48.7C146.469 48.7 148.385 47.9667 149.752 46.5C151.119 45.0333 151.802 42.6333 151.802 39.3V20H159.802V39.6C159.802 44.7333 158.402 48.6833 155.602 51.45C152.802 54.2167 148.919 55.6 143.952 55.6ZM174.47 55V26.6H163.27V20H193.77V26.6H182.57V55H174.47ZM212.289 55V20H228.189C231.989 20 235.339 20.7333 238.239 22.2C241.139 23.6333 243.405 25.65 245.039 28.25C246.672 30.85 247.489 33.9333 247.489 37.5C247.489 41.0333 246.672 44.1167 245.039 46.75C243.405 49.35 241.139 51.3833 238.239 52.85C235.339 54.2833 231.989 55 228.189 55H212.289ZM220.389 48.35H227.789C230.122 48.35 232.139 47.9167 233.839 47.05C235.572 46.15 236.905 44.8833 237.839 43.25C238.805 41.6167 239.289 39.7 239.289 37.5C239.289 35.2667 238.805 33.35 237.839 31.75C236.905 30.1167 235.572 28.8667 233.839 28C232.139 27.1 230.122 26.65 227.789 26.65H220.389V48.35ZM261.047 34.1H277.897V40.4H261.047V34.1ZM261.647 48.5H280.697V55H253.597V20H280.047V26.5H261.647V48.5ZM301.302 55V20H308.002L322.902 44.7H319.352L334.002 20H340.652L340.752 55H333.152L333.102 31.65H334.502L322.802 51.3H319.152L307.202 31.65H308.902V55H301.302ZM344.456 55L360.056 20H368.056L383.706 55H375.206L362.406 24.1H365.606L352.756 55H344.456ZM352.256 47.5L354.406 41.35H372.406L374.606 47.5H352.256ZM392.83 55V26.6H381.63V20H412.13V26.6H400.93V55H392.83ZM423.938 34.1H440.788V40.4H423.938V34.1ZM424.538 48.5H443.588V55H416.488V20H442.938V26.5H424.538V48.5ZM425.188 17.15L431.938 9.95H440.338L431.288 17.15H425.188ZM450.033 55V20H465.183C468.316 20 471.016 20.5167 473.283 21.55C475.549 22.55 477.299 24 478.533 25.9C479.766 27.8 480.383 30.0667 480.383 32.7C480.383 35.3 479.766 37.55 478.533 39.45C477.299 41.3167 475.549 42.75 473.283 43.75C471.016 44.75 468.316 45.25 465.183 45.25H454.533L458.133 41.7V55H450.033ZM472.283 55L463.533 42.3H472.183L481.033 55H472.283ZM458.133 42.6L454.533 38.8H464.733C467.233 38.8 469.099 38.2667 470.333 37.2C471.566 36.1 472.183 34.6 472.183 32.7C472.183 30.7667 471.566 29.2667 470.333 28.2C469.099 27.1333 467.233 26.6 464.733 26.6H454.533L458.133 22.75V42.6ZM486.8 55V20H494.9V55H486.8ZM510.657 34.1H527.507V40.4H510.657V34.1ZM511.257 48.5H530.307V55H503.207V20H529.657V26.5H511.257V48.5ZM536.752 55V20H544.852V48.4H562.402V55H536.752Z" fill="black"/>
</svg>
