<svg width="481" height="71" viewBox="0 0 481 71" fill="none" xmlns="http://www.w3.org/2000/svg">
<rect width="453" height="41" fill="#FECC38"/>
<path d="M13.55 58L29.15 23H37.15L52.8 58H44.3L31.5 27.1H34.7L21.85 58H13.55ZM21.35 50.5L23.5 44.35H41.5L43.7 50.5H21.35ZM56.4313 58V23H72.3313C76.1313 23 79.4813 23.7333 82.3813 25.2C85.2813 26.6333 87.5479 28.65 89.1813 31.25C90.8146 33.85 91.6313 36.9333 91.6313 40.5C91.6313 44.0333 90.8146 47.1167 89.1813 49.75C87.5479 52.35 85.2813 54.3833 82.3813 55.85C79.4813 57.2833 76.1313 58 72.3313 58H56.4313ZM64.5313 51.35H71.9313C74.2646 51.35 76.2813 50.9167 77.9812 50.05C79.7146 49.15 81.0479 47.8833 81.9813 46.25C82.9479 44.6167 83.4313 42.7 83.4313 40.5C83.4313 38.2667 82.9479 36.35 81.9813 34.75C81.0479 33.1167 79.7146 31.8667 77.9812 31C76.2813 30.1 74.2646 29.65 71.9313 29.65H64.5313V51.35ZM97.7398 58V23H104.44L119.34 47.7H115.79L130.44 23H137.09L137.19 58H129.59L129.54 34.65H130.94L119.24 54.3H115.59L103.64 34.65H105.34V58H97.7398ZM145.494 58V23H153.594V58H145.494ZM161.9 58V23H168.6L189.25 48.2H186V23H194V58H187.35L166.65 32.8H169.9V58H161.9ZM202.281 58V23H210.381V58H202.281ZM230.187 58.6C227.387 58.6 224.704 58.2333 222.137 57.5C219.57 56.7333 217.504 55.75 215.937 54.55L218.687 48.45C220.187 49.5167 221.954 50.4 223.987 51.1C226.054 51.7667 228.137 52.1 230.237 52.1C231.837 52.1 233.12 51.95 234.087 51.65C235.087 51.3167 235.82 50.8667 236.287 50.3C236.754 49.7333 236.987 49.0833 236.987 48.35C236.987 47.4167 236.62 46.6833 235.887 46.15C235.154 45.5833 234.187 45.1333 232.987 44.8C231.787 44.4333 230.454 44.1 228.987 43.8C227.554 43.4667 226.104 43.0667 224.637 42.6C223.204 42.1333 221.887 41.5333 220.687 40.8C219.487 40.0667 218.504 39.1 217.737 37.9C217.004 36.7 216.637 35.1667 216.637 33.3C216.637 31.3 217.17 29.4833 218.237 27.85C219.337 26.1833 220.97 24.8667 223.137 23.9C225.337 22.9 228.087 22.4 231.387 22.4C233.587 22.4 235.754 22.6667 237.887 23.2C240.02 23.7 241.904 24.4667 243.537 25.5L241.037 31.65C239.404 30.7167 237.77 30.0333 236.137 29.6C234.504 29.1333 232.904 28.9 231.337 28.9C229.77 28.9 228.487 29.0833 227.487 29.45C226.487 29.8167 225.77 30.3 225.337 30.9C224.904 31.4667 224.687 32.1333 224.687 32.9C224.687 33.8 225.054 34.5333 225.787 35.1C226.52 35.6333 227.487 36.0667 228.687 36.4C229.887 36.7333 231.204 37.0667 232.637 37.4C234.104 37.7333 235.554 38.1167 236.987 38.55C238.454 38.9833 239.787 39.5667 240.987 40.3C242.187 41.0333 243.154 42 243.887 43.2C244.654 44.4 245.037 45.9167 245.037 47.75C245.037 49.7167 244.487 51.5167 243.387 53.15C242.287 54.7833 240.637 56.1 238.437 57.1C236.27 58.1 233.52 58.6 230.187 58.6ZM257.334 58V29.6H246.134V23H276.634V29.6H265.434V58H257.334ZM280.992 58V23H296.142C299.275 23 301.975 23.5167 304.242 24.55C306.508 25.55 308.258 27 309.492 28.9C310.725 30.8 311.342 33.0667 311.342 35.7C311.342 38.3 310.725 40.55 309.492 42.45C308.258 44.3167 306.508 45.75 304.242 46.75C301.975 47.75 299.275 48.25 296.142 48.25H285.492L289.092 44.7V58H280.992ZM303.242 58L294.492 45.3H303.142L311.992 58H303.242ZM289.092 45.6L285.492 41.8H295.692C298.192 41.8 300.058 41.2667 301.292 40.2C302.525 39.1 303.142 37.6 303.142 35.7C303.142 33.7667 302.525 32.2667 301.292 31.2C300.058 30.1333 298.192 29.6 295.692 29.6H285.492L289.092 25.75V45.6ZM313.159 58L328.759 23H336.759L352.409 58H343.909L331.109 27.1H334.309L321.459 58H313.159ZM320.959 50.5L323.109 44.35H341.109L343.309 50.5H320.959ZM361.533 58V29.6H350.333V23H380.833V29.6H369.633V58H361.533ZM385.191 58V23H393.291V58H385.191ZM418.597 58.6C415.831 58.6 413.264 58.15 410.897 57.25C408.564 56.35 406.531 55.0833 404.797 53.45C403.097 51.8167 401.764 49.9 400.797 47.7C399.864 45.5 399.397 43.1 399.397 40.5C399.397 37.9 399.864 35.5 400.797 33.3C401.764 31.1 403.114 29.1833 404.847 27.55C406.581 25.9167 408.614 24.65 410.947 23.75C413.281 22.85 415.814 22.4 418.547 22.4C421.314 22.4 423.847 22.85 426.147 23.75C428.481 24.65 430.497 25.9167 432.197 27.55C433.931 29.1833 435.281 31.1 436.247 33.3C437.214 35.4667 437.697 37.8667 437.697 40.5C437.697 43.1 437.214 45.5167 436.247 47.75C435.281 49.95 433.931 51.8667 432.197 53.5C430.497 55.1 428.481 56.35 426.147 57.25C423.847 58.15 421.331 58.6 418.597 58.6ZM418.547 51.7C420.114 51.7 421.547 51.4333 422.847 50.9C424.181 50.3667 425.347 49.6 426.347 48.6C427.347 47.6 428.114 46.4167 428.647 45.05C429.214 43.6833 429.497 42.1667 429.497 40.5C429.497 38.8333 429.214 37.3167 428.647 35.95C428.114 34.5833 427.347 33.4 426.347 32.4C425.381 31.4 424.231 30.6333 422.897 30.1C421.564 29.5667 420.114 29.3 418.547 29.3C416.981 29.3 415.531 29.5667 414.197 30.1C412.897 30.6333 411.747 31.4 410.747 32.4C409.747 33.4 408.964 34.5833 408.397 35.95C407.864 37.3167 407.597 38.8333 407.597 40.5C407.597 42.1333 407.864 43.65 408.397 45.05C408.964 46.4167 409.731 47.6 410.697 48.6C411.697 49.6 412.864 50.3667 414.197 50.9C415.531 51.4333 416.981 51.7 418.547 51.7ZM443.785 58V23H450.485L471.135 48.2H467.885V23H475.885V58H469.235L448.535 32.8H451.785V58H443.785Z" fill="black"/>
</svg>
